# xmcd CD database file
#
# Track frame offsets:
#	150
#	21965
#	43567
#
# Disc length: 869 seconds
#
# Revision: 1
# Processed by: cddbd v1.5.2PL0 Copyright (c) Steve Scherf et al.
# Submitted via: jetAudio 7
#
DISCID=1c036303
DTITLE=TUBE - ゆずれない夏
DYEAR=1995
DGENRE=J-Pop
TTITLE0=ゆずれない夏
TTITLE1=もう一度あなたと・・・
TTITLE2=ゆずれない夏 ORIGINAL KARAOKE
EXTD=YEAR: 1995
EXTT0=
EXTT1=
EXTT2=
PLAYORDER=
